<?xml version="1.0" encoding="UTF-8" standalone="no"?>
<svg
   xmlns:dc="http://purl.org/dc/elements/1.1/"
   xmlns:cc="http://creativecommons.org/ns#"
   xmlns:rdf="http://www.w3.org/1999/02/22-rdf-syntax-ns#"
   xmlns:svg="http://www.w3.org/2000/svg"
   xmlns="http://www.w3.org/2000/svg"
   viewBox="0 0 816 1056"
   height="1056"
   width="816"
   xml:space="preserve"
   id="svg2"
   version="1.1"><metadata
     id="metadata8"><rdf:RDF><cc:Work
         rdf:about=""><dc:format>image/svg+xml</dc:format><dc:type
           rdf:resource="http://purl.org/dc/dcmitype/StillImage" /></cc:Work></rdf:RDF></metadata><defs
     id="defs6"><clipPath
       id="clipPath22"
       clipPathUnits="userSpaceOnUse"><path
         id="path20"
         d="M 0,792 H 612 V 0 H 0 Z" /></clipPath></defs><g
     transform="matrix(1.3333333,0,0,-1.3333333,0,1056)"
     id="g10"><path
       id="path12"
       style="fill:#ffffff;fill-opacity:1;fill-rule:nonzero;stroke:#ef4236;stroke-width:8.27400017;stroke-linecap:butt;stroke-linejoin:miter;stroke-miterlimit:3.86400008;stroke-dasharray:none;stroke-opacity:1"
       d="M 53,606.839 H 559 V 185.161 H 53 Z" /><path
       id="path14"
       style="fill:#ef4236;fill-opacity:1;fill-rule:nonzero;stroke:none"
       d="M 53,606.661 H 559 V 438.581 H 53 Z" /><g
       id="g16"><g
         clip-path="url(#clipPath22)"
         id="g18"><g
           transform="translate(541.7207,553.7187)"
           id="g24"><path
             id="path26"
             style="fill:#ffffff;fill-opacity:1;fill-rule:evenodd;stroke:none"
             d="M 0,0 C -2.865,0.274 -5.316,0.495 -4.357,-0.103 -3.576,-0.587 0.792,-1.18 0.792,-1.18 L 3.13,-4.319 5.359,-1.492 3.426,0.296 Z m -44.13,28.859 c 0,0 -2.37,0.615 -5.182,-1.141 -2.811,-1.761 4.832,-6.852 4.832,-6.852 z M -177.506,51.66 c 4.035,0.118 23.57,-1.901 38.803,-10.363 11.607,-6.447 28.267,-14.151 34.16,-16.967 7.907,-3.781 20.861,-1.605 24.896,-1.605 18.566,0 23.026,3.63 33.535,17.441 8.462,-7.896 25.827,-4.514 40.37,-13.978 7.6,-4.95 7.961,-16.703 14.559,-23.425 l 0.345,-8.72 C 2.359,-9.464 -7.815,-17.63 -11.85,-17.63 c -7.665,0 -13.514,6.453 -20.177,6.453 -10.287,0 -11.818,0.771 -23.721,-8.31 -4.239,-3.227 -7.272,-12.109 -11.306,-15.136 -16.746,-12.507 -36.202,-25.763 -53.55,-30.201 -4.848,-1.206 -32.082,-20.603 -32.69,-20.479 h -11.688 c -0.216,3.91 -3.205,6.566 -6.42,10.056 v 5.877 c 9.21,-4.449 27.275,16.348 27.399,28.655 l -1.702,34.203 c 0,0 20.441,0.264 22.655,-2.176 2.677,-2.941 1.39,-6.318 1.33,-10.854 1.439,-1.352 2.171,-1.745 6.2,-1.546 4.562,0.222 3.83,3.222 6.544,5.01 4.886,-3.464 0,-12.329 0,-12.329 -9.792,-12.335 -32.01,-6.781 -32.01,-23.124 0,-5.446 6.053,-6.458 8.074,-6.458 5.65,0 41.766,17.242 48.826,21.48 2.623,1.411 5.102,5.947 8.183,6.513 1.48,0.942 1.141,3.743 1.696,5.219 7.1,3.824 13.132,9.097 21.249,17.958 6.351,0.485 15.281,3.716 19.32,3.716 4.034,0 10.493,-3.231 14.528,-3.231 6.856,0 5.79,-3.07 12.307,4.352 3.043,2.117 0.528,3.706 -2.968,5.003 -5.213,1.94 -15.55,1.638 -16.24,3.082 -1.459,3.048 17.571,3.727 17.388,9.356 -0.146,4.583 -17.388,13.557 -21.788,13.719 -9.21,0.339 -4.034,-20.781 -15.076,-18.573 -5.295,1.062 -9.135,7.272 -22.052,7.272 -4.034,0 -14.479,-1.61 -20.705,-1.966 -1.411,-1.098 -4.696,-4.368 -6.377,-5.413 -1.692,-0.636 -1.972,-0.689 -6.011,-0.689 -12.303,0 -25.219,8.068 -41.728,8.305 -0.237,3.803 2.99,4.611 2.99,8.645 0,9.684 -30.267,13.72 -34.704,13.72 -4.035,0 -24.234,-2.602 -35.329,-5.226 -1.816,-0.403 -4.454,-2.607 -8.177,-6.07 -5.37,3.361 -9.765,8.069 -13.799,8.069 -9.771,0 -23.549,-10.509 -27.907,-14.866 -6.938,-6.938 -23.112,-19.812 -46.747,-25.645 -1.821,-0.452 -57.284,-5.085 -56.196,-7.988 0.728,-2.542 56.152,1.455 60.187,1.455 8.273,0 37.052,15.991 40.036,14.753 2.176,-0.91 7.261,-6.222 10.164,-8.402 l 34.542,-0.906 c -13.132,-12.2 -36.68,-35.883 -40.715,-35.883 -5.246,0 -27.308,23.527 -32,24.082 -4.584,0.544 -41.377,-3.238 -51.934,-3.097 -7.843,0.102 -35.221,1.099 -41.83,2.693 -4.579,1.099 -45.671,10.439 -51.919,13.218 -14.527,6.453 -29.054,0 -41.765,4.04 -3.232,1.023 -4.196,5.816 -1.815,11.289 4.61,10.601 24.475,4.665 33.088,3.233 14.526,-2.424 22.6,-6.459 50.001,-11.877 21.986,-4.353 21.803,-3.863 33.093,-5.102 10.46,-1.146 50.89,3.577 68.358,9.432 11.381,3.813 17.586,12.744 33.373,23.689 14.311,9.916 14.516,9.657 42.924,18.389 12.851,3.948 40.935,1.901 40.935,1.901" /></g><g
           transform="translate(382.8301,564.7119)"
           id="g28"><path
             id="path30"
             style="fill:#ffffff;fill-opacity:1;fill-rule:evenodd;stroke:none"
             d="m 0,0 c 0.372,-5.526 -0.889,-8.015 -1.007,-12.049 l -2.192,-45.519 h -5.327 c -4.035,-0.114 -16.832,14.209 -25.99,20.532 -2.736,-2.995 -2.929,-6.237 -2.52,-10.25 0.673,-6.555 2.65,-13.455 4.901,-16.046 -3.463,-3.797 -6.576,-9.447 -10.611,-9.447 -7.266,0 -27.691,10.288 -31.273,13.982 v 5.559 c 12.34,9.512 28.23,20.467 35.469,33.126 4.201,-2.02 7.062,-8.575 14.404,-10.256 2.784,0.135 5.154,1.395 9.242,3.534 C -3.027,-20.618 -9.453,-3.985 0,0" /></g><g
           transform="translate(281.5571,505.3115)"
           id="g32"><path
             id="path34"
             style="fill:#ffffff;fill-opacity:1;fill-rule:evenodd;stroke:none"
             d="m 0,0 c 17.096,-9.695 36.207,-15.512 52.548,-23.586 2.823,-1.411 6.507,-0.351 8.931,-0.953 5.85,-1.616 14.984,-9.2 20.155,-16.822 12.562,-0.506 24.223,-3.555 35.319,-6.377 10.896,-2.623 28.687,-0.889 37.58,-12.426 v -5.817 h -10.132 c -9.081,5.407 -43.182,11.203 -47.216,11.203 H 63.693 c -7.266,0 -13.821,25.289 -16.849,26.899 -2.822,1.416 -13.751,3.404 -17.581,5.219 -9.081,4.438 -17.338,7.245 -27.2,12.367 z" /></g></g></g><text
       id="text38"
       style="font-variant:normal;font-weight:normal;font-stretch:normal;font-size:39.04309845px;font-family:'Trebuchet MS';-inkscape-font-specification:TrebuchetMS;writing-mode:lr-tb;fill:#ef4236;fill-opacity:1;fill-rule:nonzero;stroke:none"
       transform="matrix(1,0,0,-1,92.8672,224.2129)"><tspan
         id="tspan36"
         y="0"
         x="0 32.405773 61.375751 91.985542 122.63438 151.29201 171.7506 201.57953 222.74089 255.14665 286.22498 316.87381 346.70273 377.35156 407.18048">Agencia Aduanal</tspan></text>
<text
       id="text44"
       style="font-variant:normal;font-weight:normal;font-stretch:normal;font-size:46.85150146px;font-family:'Trebuchet MS';-inkscape-font-specification:TrebuchetMS;writing-mode:lr-tb;fill:#939598;fill-opacity:1;fill-rule:nonzero;stroke:none"
       transform="matrix(1,0,0,-1,90.5352,358.5215)"><tspan
         id="tspan40"
         y="0"
         x="0 47.74168 87.565453 134.32326 179.01958 226.15219 270.94223 315.73227 350.68347 397.44128">Proyección</tspan><tspan
         id="tspan42"
         y="70.277252"
         x="4.4508924 57.111977 111.27232 163.79285 206.09975 254.07568 301.5831 343.89001 396.03574">Logística</tspan></text>
</g></svg>